<svg xmlns="http://www.w3.org/2000/svg" width="571.114" height="277.443" viewBox="0 0 571.114 277.443">
  <g id="IT_Consulting_banner" transform="translate(-810.442 -176)">
    <g id="Group_311342" data-name="Group 311342" transform="translate(763.84 57.936)">
      <g id="Group_311320" data-name="Group 311320" transform="translate(233.826 193.327)">
        <g id="Group_311315" data-name="Group 311315" transform="translate(10.553 41.11)">
          <path id="Path_138479" data-name="Path 138479" d="M317.442,430.5h4.009l8.344-70.415h-7.7Z" transform="translate(-277.719 -269.901)" fill="#60a6df"/>
          <path id="Path_138480" data-name="Path 138480" d="M380.7,430.5H376.69l-8.344-70.415h7.7Z" transform="translate(-284.027 -269.901)" fill="#60a6df"/>
          <path id="Path_138481" data-name="Path 138481" d="M301.48,257.145H280.3a8.2,8.2,0,0,0-8.1,9.462l12.97,82.879h24.5Z" transform="translate(-272.1 -257.145)" fill="#60a6df"/>
          <path id="Path_138482" data-name="Path 138482" d="M281.718,430.5h4.009l8.344-70.415h-7.7Z" transform="translate(-273.292 -269.901)" fill="#60a6df"/>
          <path id="Path_138483" data-name="Path 138483" d="M344.975,430.5h-4.009l-8.344-70.415h7.7Z" transform="translate(-279.6 -269.901)" fill="#60a6df"/>
          <path id="Path_138484" data-name="Path 138484" d="M290.809,365.8h73.714a3.789,3.789,0,0,0,3.789-3.789h0a3.789,3.789,0,0,0-3.789-3.789H290.809a3.789,3.789,0,0,0-3.79,3.789h0A3.789,3.789,0,0,0,290.809,365.8Z" transform="translate(-273.949 -269.67)" fill="#60a6df"/>
        </g>
        <g id="Group_311319" data-name="Group 311319">
          <path id="Path_138485" data-name="Path 138485" d="M364.585,439.224h-23.6s-1.319-4.2,1.539-9.409c0,0,1.9,1.523,7.59.493a25.292,25.292,0,0,0,4.014,2.8C355.777,433.91,365.221,435.764,364.585,439.224Z" transform="translate(-270.046 -237.432)" fill="#0271a6"/>
          <path id="Path_138486" data-name="Path 138486" d="M413.311,439.224h-23.6s-1.319-4.2,1.54-9.409c0,0,1.9,1.523,7.59.493a25.291,25.291,0,0,0,4.014,2.8C404.5,433.91,413.948,435.764,413.311,439.224Z" transform="translate(-276.084 -237.432)" fill="#0271a6"/>
          <path id="Path_138487" data-name="Path 138487" d="M326.406,333.058h0a20.883,20.883,0,0,1,.958-4.874s41.395,7.8,52.4,11.5c5.47,1.837,9.645,5.213,10.162,10.149l.025-.006c.054.519,1.387,49.82,1.576,67.767a27.077,27.077,0,0,1-9.323.833c-1.255-7.307-5.037-23.245-6.657-30.818-1.92-8.971-4.352-19.67-4.82-27.057-16.735-1.457-38.83-3.916-41.482-5.256C324.875,353.091,323.558,345.285,326.406,333.058Z" transform="translate(-268.09 -224.838)" fill="#284f63"/>
          <path id="Path_138488" data-name="Path 138488" d="M295.743,330.5c.329-3.234,1.5-4.406,1.5-4.406l17.083,5.582,15.529,3.538c5.758,1.283,12.712,2.827,18.844,4.213,6.88,1.563,11.448,6.789,9.941,13.678l-1.725,8.357h0c-1.971,10.7-8.427,39.193-11.29,56.407a27.73,27.73,0,0,1-9.587-.488c.275-6.338.064-21.152,0-27.8-.082-8.854-.3-21.687,1.828-30.057-14.329-.551-30.753-1.769-38.219-5.8C290.809,348.943,295.743,330.5,295.743,330.5Z" transform="translate(-264.307 -224.579)" fill="#284f63"/>
          <path id="Path_138489" data-name="Path 138489" d="M348.916,273.465l2.19,9.618.736,3.26v.008l2.69,11.793c1.139,1.445,7.6,9.716,11.88,16.531a85.937,85.937,0,0,0,10.257,13.113h0c.67.7,4.048,2.349,5.773,3.571a18.315,18.315,0,0,1,3.462,3.713,44.75,44.75,0,0,0-6.871-2.69c-1.488-.39-4-.781-4.038-.338-.009.089.6.922.821,1.333s1.7,1.141,2.086,1.552.555,1.323.123,1.3a26.025,26.025,0,0,1-3.961-1.3,5.348,5.348,0,0,1-2.464-3.012,15.6,15.6,0,0,0-2.526-3.8h.005a183.309,183.309,0,0,1-23.563-23.723,30.314,30.314,0,0,1-1.971-2.794v-.009a28.224,28.224,0,0,1-3.452-8.778v-.018c-.569-1.743-1.06-3.486-1.489-5.116-1.2-4.625-1.831-8.305-1.831-8.305Z" transform="translate(-269.562 -218.058)" fill="#ffbe9d"/>
          <path id="Path_138490" data-name="Path 138490" d="M295.569,296.641c.368,6.054,3.329,10.592.517,19.818a14.674,14.674,0,0,0-.832,4.258c0,.64.806,1.3,1.139,1.48,3.478,2.007,17.014,2.3,23.821,2.3,6.045,0,15.13-.964,16.269-2.488,1.051-1.4.088-3.425-.412-6.23-2.225-12.642-1.437-19.229-1.3-28.358,0-.228.009-.456.009-.693v-.175h.009c.718-.1,1.4-.236,2-.359.981-.219,1.735-.438,2.059-.542,7.342-2.3,8.437-4.661,8.437-4.661-2.076-9.033-4.582-15.1-6.816-19.1-.053-.1-.105-.192-.166-.3s-.114-.2-.175-.3a17.467,17.467,0,0,0-4.845-5.037c-.193-.14-.377-.272-.578-.412a40.707,40.707,0,0,0-12.887-5.343.138.138,0,0,0-.035-.009c-1.743-.114-3.645-.149-5.712-.079a68.077,68.077,0,0,0-14.236,2.33s-.035.008-.061.017a18.86,18.86,0,0,0-7.184,5.037,23.541,23.541,0,0,0-3.364,4.512c.237,5.66,1.463,15.848,2.155,24.654C293.493,288.3,295.491,295.38,295.569,296.641Z" transform="translate(-263.917 -215.197)" fill="#fec35b"/>
          <path id="Path_138491" data-name="Path 138491" d="M340.954,289.418c.718-.1,1.4-.236,2-.359l-1.7-15.593C341.191,276.014,340.98,287.832,340.954,289.418Z" transform="translate(-270.08 -218.058)" fill="#e3e6ed"/>
          <g id="Group_311317" data-name="Group 311317" transform="translate(39.614)">
            <path id="Path_138492" data-name="Path 138492" d="M335.088,218.31s1.61,10.586-3.115,11.682c-3.04.705-2.673-3.012-2.673-3.012l-.08-4.4Z" transform="translate(-308.24 -211.223)" fill="#192c51"/>
            <path id="Path_138493" data-name="Path 138493" d="M321.658,251.982c-.2,1.15-.634,6.553-1,6.571l-1.352-6.347s-2.558,3.557-2.488,4.091c-3.659-1.715-7.245-6.509-5.9-7.14a1.873,1.873,0,0,0,1.551-1.568c1.419-5.528-.35-14.289-.35-14.289l6.667,5.248,3.145,2.471c.088.324.184.675.28,1.034v.578a13.984,13.984,0,0,0,.307,4.783,1.434,1.434,0,0,0,.456.692,4.806,4.806,0,0,0,1.218.28l.009-.009C324.491,249.3,325.425,251.369,321.658,251.982Z" transform="translate(-305.936 -213.08)" fill="#ffbe9d"/>
            <path id="Path_138494" data-name="Path 138494" d="M316.88,239.663a9.937,9.937,0,0,0,6.4,8.536,14.016,14.016,0,0,1-.3-4.783l-2.659-2.088Z" transform="translate(-306.711 -213.869)" fill="#efa681"/>
            <path id="Path_138495" data-name="Path 138495" d="M331.824,221.767c.062,3.2.047,11.788-1.7,16.723a5.3,5.3,0,0,1-5.54,3.489,13.873,13.873,0,0,1-8.812-4.473c-1.564-1.663-3.321-1.874-4.134-4.006-1.321-3.465-3.365-9.9-2.193-14.059,1.6-5.674,18.984-12.1,22.028-.533A12.159,12.159,0,0,1,331.824,221.767Z" transform="translate(-305.747 -210.498)" fill="#ffbe9d"/>
            <path id="Path_138496" data-name="Path 138496" d="M311.761,212.186c5.713-3.089,23.179-3.582,22.194,6.383-.476,4.818-11.068,3.639-14.374,2.934-.5,2.329-.037,5.436-1.736,7.263-.968,1.041-2.832,1.284-4.768,1.188-.182.471-1.107.956-1.122,1.6-.053,2.2.476,5.1.4,7.733l-.948-.334c-.124-.418-6.081-9.085-6.13-15.755C305.227,216.89,310.106,213.081,311.761,212.186Z" transform="translate(-305.273 -210.22)" fill="#192c51"/>
            <g id="Group_311316" data-name="Group 311316" transform="translate(6.193 15.623)">
              <path id="Path_138497" data-name="Path 138497" d="M316.311,235.955c-3.49,1.822-5.673-7.033-2.252-7.834,2.595-.608,3.128,3.049,3.128,3.049S318.3,234.914,316.311,235.955Z" transform="translate(-312.342 -228.053)" fill="#ffbe9d"/>
            </g>
            <path id="Path_138498" data-name="Path 138498" d="M316.4,232.394a3.527,3.527,0,0,0-.057-.791,2.883,2.883,0,0,0-.384-.957,2.374,2.374,0,0,0-.612-.655,1.757,1.757,0,0,0-.785-.329,3.17,3.17,0,0,1,.527.591,3.782,3.782,0,0,1,.618,1.459,1.771,1.771,0,0,0-.3-.169,2.013,2.013,0,0,0-.845-.157,1.64,1.64,0,0,0-.375.048,1.58,1.58,0,0,1,.364.052,1.81,1.81,0,0,1,.7.336,1.612,1.612,0,0,1,.454.565,1.87,1.87,0,0,1,.124.3h0c.017.254.018.5.025.715,0,.243,0,.445.006.586s.012.23.012.23a2.208,2.208,0,0,0,.109-.2,3.964,3.964,0,0,0,.237-.558,3.587,3.587,0,0,0,.173-.846c.007-.066,0-.138.005-.207l.006,0Z" transform="translate(-306.378 -212.63)" fill="#efa681"/>
          </g>
          <path id="Path_138499" data-name="Path 138499" d="M305.26,273.465s-1.93,11.58-3.318,16.837a15.185,15.185,0,0,1-4.272.293Z" transform="translate(-264.716 -218.058)" fill="#e5a940"/>
          <path id="Path_138502" data-name="Path 138502" d="M298.627,282.44s-.1.648-.28,1.735c-.324,1.9-.894,5.16-1.621,8.594-.5,2.348-1.069,4.775-1.673,6.921l-13.36-1.419c.175-1.8.4-3.8.648-5.835.017-.14.026-.219.026-.219.228-1.892.464-3.82.7-5.633.114-.946.228-1.857.342-2.725.543-4.179.972-7.289.972-7.289Z" transform="translate(-262.736 -218.442)" fill="#ffbe9d"/>
          <path id="Path_138503" data-name="Path 138503" d="M286.287,266.589c2.225-5.007,3.977-7.374,4.928-8.378a15.774,15.774,0,0,1,6.765-4.137c1.531-.619,2.694-.972,2.694-.972s4.558,3.284,2.955,16.221c-.7,5.624-4.911,17.2-4.911,17.2-2.917.484-7.25-.583-10.488-1.755a14.451,14.451,0,0,1-5.846-3.487S283.808,272.167,286.287,266.589Z" transform="translate(-262.822 -215.534)" fill="#fec35b"/>
          <path id="Path_138504" data-name="Path 138504" d="M312.592,248.365a8.5,8.5,0,0,0,6.61,5.7l-2.547,4.524a11.06,11.06,0,0,1-6.869-7.383Z" transform="translate(-266.217 -214.947)" fill="#e5a940"/>
          <path id="Path_138505" data-name="Path 138505" d="M323.219,253.9l2.858,3.432a10.057,10.057,0,0,0-.3-7.024l-1.878-1.534S324.626,250.184,323.219,253.9Z" transform="translate(-267.882 -214.998)" fill="#e5a940"/>
          <path id="Path_138506" data-name="Path 138506" d="M325.9,300.31l12.134-26.79a1.169,1.169,0,0,1,1.065-.688h23.825a.9.9,0,0,1,.772,1.347l-15.958,27.2a1.171,1.171,0,0,1-1.009.577H326.966A1.17,1.17,0,0,1,325.9,300.31Z" transform="translate(-268.201 -217.979)" fill="#60a6df"/>
          <path id="Path_138507" data-name="Path 138507" d="M322.406,291.386s-25.861,2.874-30.489,4.042-10.238,4.678-10.238,4.678-1.253,6.492,5.537,7.368,36.066-12.411,36.066-12.411Z" transform="translate(-262.723 -220.278)" fill="#ffbe9d"/>
          <path id="Path_138508" data-name="Path 138508" d="M339.047,288.592a4.694,4.694,0,0,0-1.16.343.8.8,0,0,0,.046-.069c.182-.548-.365-.566-.694-.493a10.981,10.981,0,0,1-2.227.73,16.219,16.219,0,0,1-3.285-.2l.647-1.426a9.1,9.1,0,0,0-2.4.715,22.061,22.061,0,0,1-2.117,1.752,11,11,0,0,1-2.384,1.211l1.076,2.248-2.137.56.491.807s6.425-.211,7.291-.4a25.306,25.306,0,0,0,4.083-1.753c.468-.263.619-.552.534-.759.551-.342,1.039-.663,1.3-.856.507-.371.576-.726.358-.906.26-.188.488-.358.633-.477C339.781,289.071,339.631,288.592,339.047,288.592Z" transform="translate(-268.03 -219.794)" fill="#ffbe9d"/>
        </g>
      </g>
      <g id="Group_311321" data-name="Group 311321" transform="translate(356.654 142.705)">
        <path id="Path_138509" data-name="Path 138509" d="M478.378,241.179s1.483-.384,1.884-2.866-3.03-2.556-3.139-2.483-1.715.986-1.715.986a6.711,6.711,0,0,0,0,1.716C475.553,238.678,476.59,241.8,478.378,241.179Z" transform="translate(-409.484 -162.771)" fill="#2d8bb8"/>
        <path id="Path_138510" data-name="Path 138510" d="M499.633,202.232c-.142-.492-.751.1-.958.414-.031.045-.1.152-.188.3a7.447,7.447,0,0,0,.831-2.865c-.139-.48-.624-.149-.964.21a4,4,0,0,0,.364-1.716c-.182-.627-.958.132-1.223.529-.123.184-.708,1.129-1.3,2.089a6.21,6.21,0,0,0,.664-2.484c-.182-.628-.958.132-1.223.528s-2.676,4.329-2.676,4.329l-.613.927a28.072,28.072,0,0,0-.485-3.191c-.247-.835-.958-.866-1.113-.186s-.463,2.576-.556,3.41-.061,2.432-.124,3.421a3.769,3.769,0,0,1-.752,2.282c-1.466,1.537-3.955,4.143-5.877,6.136-2.895,3-6.432,7.45-6.432,7.45l-4-5.581-8.714,9.44s10.036,8.9,14.11,7.182c3.41-1.436,11.546-17.007,14.108-22.046h0a17.383,17.383,0,0,1,1.839-2.288,20.624,20.624,0,0,1,2.055-1.835,22.92,22.92,0,0,0,1.564-2.162,14.516,14.516,0,0,0,.875-1.767A6.817,6.817,0,0,0,499.633,202.232Z" transform="translate(-408.115 -158.126)" fill="#ffbe9d"/>
        <path id="Path_138511" data-name="Path 138511" d="M466.926,427.839l.99,10.986h.707l1.08-10.986Z" transform="translate(-408.441 -186.566)" fill="#af2536"/>
        <path id="Path_138512" data-name="Path 138512" d="M423.1,427.839l.99,10.986h.707l1.08-10.986Z" transform="translate(-403.011 -186.566)" fill="#222"/>
        <path id="Path_138513" data-name="Path 138513" d="M467.92,420.534s-2.91,1.493-1.375,5.7c1.186,3.249,2.164,4.352,2.868,6.718a7.023,7.023,0,0,0,5.133,5.007c1.878.512,5-.646,4.3-1.937a45.479,45.479,0,0,1-2.428-5.178Z" transform="translate(-408.339 -185.661)" fill="#222"/>
        <path id="Path_138514" data-name="Path 138514" d="M415.844,411.935s.33,3.147.755,7.676c0,0-.648,2-1.509,4.479-.965,2.78-2.913,7.9-2.913,7.9s.511,2.189,1.962,1.447a5.684,5.684,0,0,0,1.293-.891c1.671-1.56,7.785-10.392,7.785-10.392l-.453-2.542,1.176-10.048Z" transform="translate(-401.657 -184.301)" fill="#e5918f"/>
        <path id="Path_138515" data-name="Path 138515" d="M466.309,413.075,468,419.914a4.723,4.723,0,0,0,.067,3.936c.662,1.549,1.677,2.146,2.343,4.279a7.764,7.764,0,0,0,1.537,2.618,3.742,3.742,0,0,0,4.215.956c1.157-.654.032-2.153-.082-2.668-.76-3.472-1.929-8.062-2.466-9.578-.318-2.415-.539-6.538-.539-6.538Z" transform="translate(-408.365 -184.717)" fill="#e5918f"/>
        <path id="Path_138516" data-name="Path 138516" d="M418.66,269.413s-5.309,7.152-6.671,24.081c-1.013,12.588-1.405,32.972-1.322,38.312.053,3.309.981,6.529,1.822,14.4s3.167,48.358,3.167,48.358,2.513,2.068,7.8.141c0,0,6.1-40.823,5.636-48.408s-1.628-9.62-.831-14.213c.835-4.814,5.888-35.713,5.673-35.8l.829.322s4.116,17.149,7.212,27.151,4.443,16.044,4.443,16.044.373,11.16,2.279,18.965,10.714,36.519,10.714,36.519a8.625,8.625,0,0,0,6.768-.157s-.654-33.994-1.353-39.87-2.808-15.49-2.808-15.49-2.428-35.645-3.694-46.884c-1.8-16-7.408-22.672-7.408-22.672Z" transform="translate(-401.468 -166.934)" fill="#222"/>
        <path id="Path_138517" data-name="Path 138517" d="M423.925,173.464s-1.976,11.742,6.247,13.972c4.968,1.346-1.587-11.168-1.587-11.168Z" transform="translate(-403.087 -155.044)" fill="#18004d"/>
        <path id="Path_138518" data-name="Path 138518" d="M448.692,168.466s4.4,11.038-1.7,15.536c-4.144,3.053-2.763-10.937-2.763-10.937Z" transform="translate(-405.601 -154.425)" fill="#18004d"/>
        <path id="Path_138519" data-name="Path 138519" d="M425.643,180.351s-1.7-1.053-2.65-.068.394,6.237,4.5,5.743Z" transform="translate(-402.961 -155.837)" fill="#efa681"/>
        <path id="Path_138520" data-name="Path 138520" d="M448.761,175.787s1.173-1.619,2.427-1.068,2,5.921-1.984,7.017Z" transform="translate(-406.19 -155.186)" fill="#efa681"/>
        <path id="Path_138521" data-name="Path 138521" d="M448.045,199.343a11.974,11.974,0,0,1-21.982.1,10.13,10.13,0,0,0,3.962-2.1,11.076,11.076,0,0,0,1.828-4.1c.346-1.264.523-2.287.523-2.287l-.805-1.651V189.3c.017-.178.032-.339.049-.476.024-.241.039-.435.048-.563s.016-.2.016-.2h10.7s.009.073.017.2.024.322.048.555a.074.074,0,0,0,.008.04l-.619,1.4s.088,1.369.362,2.907a9.1,9.1,0,0,0,1.248,3.664C444.147,197.709,446.265,198.659,448.045,199.343Z" transform="translate(-403.378 -156.852)" fill="#ffbe9d"/>
        <path id="Path_138522" data-name="Path 138522" d="M442.616,190.253s.088,1.369.362,2.907c-.721,1.047-1.793,2.662-3.7,3.1-1.778.407-5.663-1.892-6.645-3.02.346-1.264.523-2.287.523-2.287l-.805-1.651V189.3c.017-.178.032-.339.049-.476.024-.241.039-.435.048-.563s.016-.2.016-.2h10.7s.009.073.017.2.024.322.048.555a.074.074,0,0,0,.008.04Z" transform="translate(-404.157 -156.852)" fill="#efa681"/>
        <path id="Path_138523" data-name="Path 138523" d="M445.085,170.4l-10.98-2.347-9.272,6.331s1.075,6.669,3.026,10.556c1.831,3.648,6.173,6.245,10.121,6.661a2.536,2.536,0,0,0,1.46-.286c3.5-1.882,6.531-5.929,6.844-10C446.617,176.981,445.085,170.4,445.085,170.4Z" transform="translate(-403.225 -154.374)" fill="#ffbe9d"/>
        <path id="Path_138524" data-name="Path 138524" d="M430.692,164.108s-3.148-3.461-2.882-6.783c.31-3.882,3.545-5.164,6.2-4.839a3.585,3.585,0,0,1,3.041,2.634s1.877-2.365,4.062-.364c1.37,1.254,1.611,7.08-1.652,9.173S433.578,166.49,430.692,164.108Z" transform="translate(-403.592 -152.439)" fill="#210866"/>
        <path id="Path_138525" data-name="Path 138525" d="M428.24,162.582s-.247-2.835,5.7-3.443c4.466-.456,8.533.817,8.593,3.178C442.619,165.614,428.647,165.875,428.24,162.582Z" transform="translate(-403.647 -153.258)" fill="#0271a6"/>
        <path id="Path_138526" data-name="Path 138526" d="M433.294,162.965s-7.171-2.609-9.741,2.916c-1.708,3.673.534,8.8.576,10.782" transform="translate(-402.987 -153.667)" fill="none" stroke="#210866" stroke-miterlimit="10" stroke-width="0.866"/>
        <path id="Path_138527" data-name="Path 138527" d="M436.862,153.951a3.125,3.125,0,0,1,2.437-.94c1.658.046,3.774,1.341,3.4,5.4" transform="translate(-404.716 -152.51)" fill="none" stroke="#210866" stroke-miterlimit="10" stroke-width="0.866"/>
        <path id="Path_138528" data-name="Path 138528" d="M441.012,170.956s-1.08,6.305-8.956,7.806" transform="translate(-404.12 -154.733)" fill="none" stroke="#210866" stroke-miterlimit="10" stroke-width="0.866"/>
        <path id="Path_138529" data-name="Path 138529" d="M443.382,161.635a5.536,5.536,0,0,0-5.507.931c-2.053-2.149-6.638-1.774-8.58-1.227-5.554,1.561-6.035,6.207-5.746,11.924.193,3.8-.1,4-.1,4,10.214,1.784,15.219-4.339,16.317-7.41,1.038,1.6,3.734,5.286,7.984,4.606,0,0-.011-1.6-.223-3.46C447.258,168.7,446.739,162.83,443.382,161.635Z" transform="translate(-403.053 -153.489)" fill="#210866"/>
        <path id="Path_138530" data-name="Path 138530" d="M451.333,261.584c.009.016.009.032.017.048a49.539,49.539,0,0,1-15.693,2.383,46.035,46.035,0,0,1-16.562-3.188,19.38,19.38,0,0,0,2.158-9.1c.282-9.332-2.054-26.8-3.27-30.629-.845-2.657-3.849-15.822-3.849-15.822l12.191-5.137c.04.048.073.105.113.153a11.638,11.638,0,0,0,18.438,0c.04-.048.081-.105.121-.153l11.747,3.916s-4.565,20.529-6.208,35.425c-1.489,13.5.387,20.725.757,21.957C451.31,261.5,451.325,261.552,451.333,261.584Z" transform="translate(-401.899 -158.35)" fill="#fff"/>
        <path id="Path_138531" data-name="Path 138531" d="M472.815,235.924c-2.246-3.581.233-9.345,1.156-11.228a5.7,5.7,0,0,1,.695-1.084l.385-.478a2.407,2.407,0,0,0-1.59-.209c-2.486-3.794-10-15.319-12.341-18.3a2.757,2.757,0,0,0-.88-.527l-10.869-3.623s-7.026,21.322-7.026,36.684c0,13.5,4.186,27.461,6.122,29.994a25.419,25.419,0,0,0,12.208,8.22s-2.571-14.5-4.762-23.186a131.067,131.067,0,0,1,.444-27.355c3.6,2.762,9.04,6.931,11.693,8.9.843.626,1.566,1.11,2.181,1.484.732.446,1.8,1.614,2.255,1.8a1.9,1.9,0,0,0,1.8-.219A1.759,1.759,0,0,1,472.815,235.924Z" transform="translate(-405.395 -158.391)" fill="#0271a6"/>
        <path id="Path_138532" data-name="Path 138532" d="M458.34,227.364s.651-4.33,1.235-6.447c0,0,.221,6.451.512,7.788Z" transform="translate(-407.377 -160.925)" fill="#af2536"/>
        <path id="Path_138533" data-name="Path 138533" d="M404.209,230.862s-2.947,9.484-2.9,13.919c.067,5.717,2.968,6.072,5.018,6.1,2.427.029,6.213-4.344,6.213-4.344l3.359-8.818Z" transform="translate(-400.311 -162.157)" fill="#2d8bb8"/>
        <path id="Path_138534" data-name="Path 138534" d="M428.932,221.457a70.552,70.552,0,0,0-5.774-20.626L412.4,205.363s-3.724,6.494-8.336,21.778a77.489,77.489,0,0,0-1.9,10.377,6.763,6.763,0,0,0-1.986,3.926c-.346,5.457,5.109,5.669,5.109,5.669s-2.043-.577-1.8-3.521a5.119,5.119,0,0,1,.464-2.933c3.128-6.161,10.395-6.634,11.8-6.664.653-1.574,1.32-3.173,1.95-4.677l.2.9s2.28,16.715.361,22.488a214.561,214.561,0,0,0-6.326,23.085s9.539-3.242,12.814-8.6C430.259,258.186,432.387,249.192,428.932,221.457Z" transform="translate(-400.169 -158.436)" fill="#0271a6"/>
        <path id="Path_138535" data-name="Path 138535" d="M419.948,232.09s-1.228-6.326-1.74-8.882c0,0,.941,9.3.762,11.22Z" transform="translate(-402.404 -161.208)" fill="#2d8bb8"/>
        <path id="Path_138536" data-name="Path 138536" d="M424.523,203.167l-2.19,10.658,5.037,3.477-3.263,3.659s9.325,18.416,6.988,35.062" transform="translate(-402.915 -158.725)" fill="none" stroke="#2d8bb8" stroke-miterlimit="10" stroke-width="1"/>
        <path id="Path_138537" data-name="Path 138537" d="M452.449,203.167l2.19,10.658L449.6,217.3l3.263,3.659s-9.325,18.416-6.988,35.062" transform="translate(-405.787 -158.725)" fill="none" stroke="#2d8bb8" stroke-miterlimit="10" stroke-width="1"/>
        <path id="Path_138538" data-name="Path 138538" d="M422.187,421.625a3.643,3.643,0,0,1-1.343,3.255,64.248,64.248,0,0,0-7.142,8.208,1.572,1.572,0,0,1-2.2.4h0s-1.432.975-3.243,2.15c-.892.577-1.542,1.44-1.49,1.761a.77.77,0,0,0,.714.66c1.707,0,3.913,0,3.913,0,1.662,0,3.392.075,4.288-1.324l1.7-2.626a12.869,12.869,0,0,1,5.112-5.121l.021-.011C424.138,428.1,425.54,425.632,422.187,421.625Z" transform="translate(-400.987 -185.796)" fill="#222"/>
        <path id="Path_138539" data-name="Path 138539" d="M459.826,253.218H433.5a1.176,1.176,0,0,1-1.174-1.255L434.9,213.28a1.176,1.176,0,0,1,1.174-1.1h29.856a1.176,1.176,0,0,1,1.163,1.36l-6.1,38.684A1.176,1.176,0,0,1,459.826,253.218Z" transform="translate(-404.154 -159.842)" fill="#60a6df"/>
        <path id="Path_138540" data-name="Path 138540" d="M448.6,214.716a1.215,1.215,0,0,1-1.068.9c-.456,0-.718-.4-.583-.9a1.214,1.214,0,0,1,1.068-.9C448.473,213.813,448.734,214.217,448.6,214.716Z" transform="translate(-405.962 -160.044)" fill="#5ab8ff"/>
        <line id="Line_800" data-name="Line 800" x2="11.206" transform="translate(41.813 54.672)" fill="none" stroke="#5ab8ff" stroke-miterlimit="10" stroke-width="0.5"/>
        <path id="Path_138541" data-name="Path 138541" d="M461.391,214.716a1.216,1.216,0,0,1-1.068.9c-.456,0-.717-.4-.583-.9a1.214,1.214,0,0,1,1.068-.9C461.264,213.813,461.525,214.217,461.391,214.716Z" transform="translate(-407.547 -160.044)" fill="#5ab8ff"/>
        <path id="Path_138542" data-name="Path 138542" d="M438.333,235.241c.324.254-.578.876-1.191,1.253a.262.262,0,0,1-.07.035.22.22,0,0,0,.061.035c.324.254-.569.867-1.191,1.253a22.222,22.222,0,0,1-2.471,1.078l-2.278.569v-.009c-.473.14-1.1.342-1.673.543s-1.1.394-1.375.517c-5.309,3.163-20.614,11.783-23.61,7.92a4.11,4.11,0,0,1-.569-.972,5.043,5.043,0,0,1,.464-2.909c3.128-6.159,10.39-6.632,11.8-6.658a85.061,85.061,0,0,0,9.26-1.305c.578-.123,1.665-.456,2.479-.718a.088.088,0,0,1,.009-.026s.867-2.076,1.069-2.444a6.584,6.584,0,0,1,1.235-1.121l-.114,1.638s1.857-.131,2.768-.237,3.215-1.016,3.872-1.016.753.464,0,.955c-.438.289-3.469,1.673-3.469,1.673.149-.035,2.462-.929,3.285-1.332s1.5-.736,1.936-.464c.35.21-.464.929-1.034,1.384-.149.114-.377.254-.622.412C437.51,235.092,438.009,235,438.333,235.241Z" transform="translate(-400.635 -162.333)" fill="#ffbe9d"/>
        <path id="Path_138543" data-name="Path 138543" d="M401.006,243.921s1.911-3.851,9.011-5.129" transform="translate(-400.273 -163.14)" fill="none" stroke="#2d8bb8" stroke-miterlimit="10" stroke-width="0.5"/>
        <path id="Path_138544" data-name="Path 138544" d="M477.1,226.563s-2.628,2.025-3.723,8.281" transform="translate(-409.241 -161.624)" fill="none" stroke="#2d8bb8" stroke-miterlimit="10" stroke-width="0.5"/>
      </g>
      <g id="Group_311322" data-name="Group 311322" transform="translate(217.808 279.791)">
        <path id="Path_138545" data-name="Path 138545" d="M272.486,315.062l-24.5,109.774h-4.039l20.928-109.774Z" transform="translate(-242.005 -309.677)" fill="#176a92"/>
        <path id="Path_138546" data-name="Path 138546" d="M483.812,315.062l24.5,109.774h4.039L491.425,315.062Z" transform="translate(-271.728 -309.677)" fill="#176a92"/>
        <rect id="Rectangle_163979" data-name="Rectangle 163979" width="198.367" height="3.966" transform="translate(21.33 14.36)" fill="#176a92"/>
        <path id="Path_138547" data-name="Path 138547" d="M487.97,314.3H244.423a2.693,2.693,0,0,1-2.693-2.693h0a2.693,2.693,0,0,1,2.693-2.692H487.97a2.692,2.692,0,0,1,2.692,2.692h0A2.693,2.693,0,0,1,487.97,314.3Z" transform="translate(-241.73 -308.915)" fill="#4e95cf"/>
      </g>
      <g id="Group_311328" data-name="Group 311328" transform="translate(121.575 187.084)">
        <g id="Group_311323" data-name="Group 311323" transform="translate(0 47.353)">
          <path id="Path_138548" data-name="Path 138548" d="M177.443,430.5h4.009l8.344-70.415h-7.7Z" transform="translate(-137.719 -269.901)" fill="#176a92"/>
          <path id="Path_138549" data-name="Path 138549" d="M240.7,430.5H236.69l-8.344-70.415h7.7Z" transform="translate(-144.027 -269.901)" fill="#176a92"/>
          <path id="Path_138550" data-name="Path 138550" d="M161.48,257.145H140.3a8.2,8.2,0,0,0-8.1,9.462l12.97,82.879h24.5Z" transform="translate(-132.1 -257.145)" fill="#176a92"/>
          <path id="Path_138551" data-name="Path 138551" d="M141.718,430.5h4.009l8.344-70.415h-7.7Z" transform="translate(-133.292 -269.901)" fill="#176a92"/>
          <path id="Path_138552" data-name="Path 138552" d="M204.975,430.5h-4.009l-8.344-70.415h7.7Z" transform="translate(-139.6 -269.901)" fill="#176a92"/>
          <path id="Path_138553" data-name="Path 138553" d="M150.809,365.8h73.714a3.789,3.789,0,0,0,3.789-3.789h0a3.789,3.789,0,0,0-3.789-3.789H150.809a3.789,3.789,0,0,0-3.79,3.789h0A3.789,3.789,0,0,0,150.809,365.8Z" transform="translate(-133.949 -269.67)" fill="#176a92"/>
        </g>
        <g id="Group_311327" data-name="Group 311327" transform="translate(7.137)">
          <path id="Path_138554" data-name="Path 138554" d="M226.359,438.983h-23.8s-1.33-4.238,1.552-9.488c0,0,1.915,1.536,7.653.5a25.572,25.572,0,0,0,4.048,2.828C217.477,433.625,227,435.494,226.359,438.983Z" transform="translate(-147.931 -231.15)" fill="#284f63"/>
          <path id="Path_138555" data-name="Path 138555" d="M224.855,363.046c-1.537,9.172-8.629,40.2-11.679,58.533a28,28,0,0,1-9.667-.491c.278-6.392.828-21.682.763-28.388-.106-11.333-.638-26.276,4.351-34.477l16.773,1.32c-.1.886-.194,1.606-.277,2.121C225.039,362.157,224.947,362.614,224.855,363.046Z" transform="translate(-148.086 -222.317)" fill="#162842"/>
          <path id="Path_138556" data-name="Path 138556" d="M275.493,438.983h-23.8s-1.33-4.238,1.552-9.488c0,0,1.916,1.536,7.653.5a25.526,25.526,0,0,0,4.048,2.828C266.611,433.625,276.135,435.494,275.493,438.983Z" transform="translate(-154.019 -231.15)" fill="#284f63"/>
          <path id="Path_138557" data-name="Path 138557" d="M260.385,420.262a27.33,27.33,0,0,1-9.4.84c-1.266-7.368-3.264-23.581-5.064-31.18-2.791-11.811-5.523-28.056-3.625-33.852l16.5-4.143C258.851,352.449,260.194,402.165,260.385,420.262Z" transform="translate(-152.814 -221.538)" fill="#0d1d30"/>
          <path id="Path_138558" data-name="Path 138558" d="M187.86,331.823h0c.331-3.262.713-5.643.713-5.643l18.434,4.512,15.659,3.567c5.806,1.293,12.819,2.851,19,4.248,6.939,1.576,11.544,6.846,10.024,13.793l-1.739,8.427c-9.7-.132-55.326-4.507-59.228-6.477C186.316,352.025,184.989,344.153,187.86,331.823Z" transform="translate(-145.958 -218.347)" fill="#0d1d30"/>
          <path id="Path_138559" data-name="Path 138559" d="M156.451,331.665h0a25.477,25.477,0,0,1,1.92-6.761l17.227,5.63,15.659,3.567c5.8,1.293,12.819,2.851,19,4.248,6.938,1.576,11.543,6.846,10.024,13.793l-1.739,8.427c-9.7-.132-50.262-1.546-59.228-6.477C154.988,351.714,153.58,343.995,156.451,331.665Z" transform="translate(-142.069 -218.189)" fill="#162842"/>
          <g id="Group_311324" data-name="Group 311324" transform="translate(54.988 85.415)">
            <path id="Path_138560" data-name="Path 138560" d="M214.005,302.232s-8.188-3.7-10.442.011c-1.234,2.031-.38,5.8,2.413,7.385s18.573,8.259,33.467,11.98a36.244,36.244,0,0,1,1.661-4.25,78.391,78.391,0,0,1-13.323-7.436,84.922,84.922,0,0,0-13.775-7.691Z" transform="translate(-203.012 -300.591)" fill="#e5918f"/>
          </g>
          <path id="Path_138561" data-name="Path 138561" d="M209,274.78l7.017,28.029s-.725,7.086-7.881,3.608-11.9-25.808-11.9-25.808Z" transform="translate(-147.185 -211.978)" fill="#ffbe9d"/>
          <path id="Path_138562" data-name="Path 138562" d="M212.779,281.5s-1.591,1.437-8.214,3.723c-.762.263-1.559.526-2.4.771-.8.237-1.621.464-2.5.675l1.507-16.3.079-.867.832-14.639c.2.14.385.272.587.412a17.388,17.388,0,0,1,4.88,5.081C207.623,260.449,210.783,271.884,212.779,281.5Z" transform="translate(-147.61 -209.509)" fill="#60a6df"/>
          <path id="Path_138563" data-name="Path 138563" d="M204.565,287.272c-.762.263-1.559.526-2.4.771-.8.237-1.621.464-2.5.675l1.507-16.3.7-1.034S203.663,280.579,204.565,287.272Z" transform="translate(-147.61 -211.556)" fill="#008dd1"/>
          <path id="Path_138564" data-name="Path 138564" d="M203.642,220.462s-.474,2.534-.958,4.736l-2.09,1.318a38.3,38.3,0,0,1,.4-5.738Z" transform="translate(-147.723 -205.247)" fill="#182b51"/>
          <path id="Path_138565" data-name="Path 138565" d="M198.023,320.793c-1.148,1.533-10.311,2.5-16.409,2.5-6.86,0-20.509-.289-24.022-2.322-.324-.175-1.148-.85-1.148-1.489a14.746,14.746,0,0,1,.841-4.293c.946-3.11.745-9.619.035-17.11-.289-3-.648-6.176-1.051-9.339-1.586-12.528-3.758-25.117-3.881-28.148a24.148,24.148,0,0,1,3.382-4.547,19.084,19.084,0,0,1,7.254-5.081l.053-.018a69.538,69.538,0,0,1,14.359-2.348c2.085-.07,4-.035,5.756.079a.246.246,0,0,1,.044.009,41.078,41.078,0,0,1,12.992,5.4c.2.14.385.272.587.412.657,4.38-.272,16.532-.508,30.724,0,.237-.009.464-.009.7-.14,9.2-.937,15.848,1.314,28.587C198.111,317.341,199.083,319.374,198.023,320.793Z" transform="translate(-141.751 -208.728)" fill="#60a6df"/>
          <path id="Path_138566" data-name="Path 138566" d="M164.23,278.5s-4.389,21.753-4.389,25.257l-1.971-1.971c-.289-3-.648-6.176-1.051-9.339Z" transform="translate(-142.3 -212.438)" fill="#008dd1"/>
          <path id="Path_138567" data-name="Path 138567" d="M186.921,255.711c-9.917,1.182-12.167-7.809-10.529-8.58a1.609,1.609,0,0,0,1.531-1.287c1.437-5.572-.657-11.711-.657-11.711l6.72,5.284,3.723,3.512.736.692s-.079,2.225-.018,3.224c.018.264.044.448.088.473a14.79,14.79,0,0,0,1.478.645S193.29,254.948,186.921,255.711Z" transform="translate(-144.665 -206.94)" fill="#ffbe9d"/>
          <path id="Path_138568" data-name="Path 138568" d="M189.288,247.62c-5.073-1.323-6.439-7.228-6.439-7.228l5.721,3.312.736.692S189.227,246.621,189.288,247.62Z" transform="translate(-145.526 -207.716)" fill="#efa681"/>
          <path id="Path_138569" data-name="Path 138569" d="M199.413,222.453s-1.4,19.3-6.607,20.941a13.555,13.555,0,0,1-11.407-5.787c-1.373-1.848-3.108-2.263-3.675-4.494-.921-3.623-2.22-10.308-.563-14.336C179.52,213.038,200.641,208.291,199.413,222.453Z" transform="translate(-144.722 -204.34)" fill="#ffbe9d"/>
          <path id="Path_138570" data-name="Path 138570" d="M176.328,207.173c4.276-1.941,7.167-.2,7.167-.2a7.105,7.105,0,0,1,7.865-3.706c5.571,1.139,4.729,5.939,4.729,5.939s5.8-1.954,7.659,3.369-3.061,7.247-5.978,7.37c-1.4.06-7.533-.235-11.718-.162a1.673,1.673,0,0,0-1.63,1.473,8.06,8.06,0,0,1-.37,1.912c-.321.519-1.993,1.676-2.039,2.538v0c.052,1.1.033,1.98-.224,2.14-.729.457-3.733.375-5.25.228-1.085-.106-1.967-4.846-2.451-8.16C173.823,218.126,171.214,209.495,176.328,207.173Z" transform="translate(-144.329 -203.094)" fill="#182b51"/>
          <g id="Group_311325" data-name="Group 311325" transform="translate(30.727 20.715)">
            <path id="Path_138571" data-name="Path 138571" d="M179.652,234.58c-3.387,2.071-6.185-6.69-2.8-7.729,2.57-.787,3.354,2.855,3.354,2.855S181.586,233.4,179.652,234.58Z" transform="translate(-175.319 -226.74)" fill="#ffbe9d"/>
            <path id="Path_138572" data-name="Path 138572" d="M179.493,231.022l.006,0-.007-.009a3.535,3.535,0,0,0-.111-.793,2.9,2.9,0,0,0-.45-.936,2.41,2.41,0,0,0-.661-.619,1.771,1.771,0,0,0-.812-.277,3.194,3.194,0,0,1,.571.559,3.818,3.818,0,0,1,.721,1.426,1.812,1.812,0,0,0-.31-.151,2.034,2.034,0,0,0-.861-.1,1.667,1.667,0,0,0-.374.074,1.622,1.622,0,0,1,.371.028,1.828,1.828,0,0,1,.722.29,1.633,1.633,0,0,1,.495.538,1.865,1.865,0,0,1,.145.294l0,0c.035.255.052.5.074.717.019.244.035.448.046.59s.029.231.029.231.04-.074.1-.21a3.962,3.962,0,0,0,.2-.578,3.645,3.645,0,0,0,.117-.863C179.5,231.162,179.5,231.091,179.493,231.022Z" transform="translate(-175.553 -226.944)" fill="#efa681"/>
          </g>
          <path id="Path_138573" data-name="Path 138573" d="M140.319,302.5v.01c1.63,1.891,7.812,3.268,10.786.653.935-.832,1.99-3.027,3.027-5.751a178.039,178.039,0,0,0,5.134-17.379l-13.836-7.07s-1.779,7.98-3.313,15.565c0,0-.013.076-.041.211-.5,2.429-.964,4.818-1.329,6.869a.972.972,0,0,0-.026.163A29.058,29.058,0,0,0,140.319,302.5Z" transform="translate(-140.247 -211.753)" fill="#ffbe9d"/>
          <path id="Path_138574" data-name="Path 138574" d="M164.861,267.657c-1.337,5.556-5.536,16.085-5.536,16.085-2.941.488-6.677-.64-9.876-1.994a48.071,48.071,0,0,1-6.229-3.176,123.008,123.008,0,0,1,4.767-13.711,31.741,31.741,0,0,1,4.563-7.934c3.128-3.915,7.87-5.223,9.393-5.647Z" transform="translate(-140.615 -209.065)" fill="#60a6df"/>
          <g id="Group_311326" data-name="Group 311326" transform="translate(0 76.572)">
            <path id="Path_138575" data-name="Path 138575" d="M140.319,304.675v.01c.119,1.014.4,1.742.9,2,.08.051,1.216.727,1.295.779a69.145,69.145,0,0,0,8.576,4.434,310.506,310.506,0,0,0,29.949,10.761,35.335,35.335,0,0,1,1.832-4.181,78.442,78.442,0,0,1-13-7.98c-6.453-4.926-15.736-10.91-15.736-10.91l-2.344-2.757s-8.333-7.67-9.672-6.126c0,0-.013.076-.041.211-.2.8-.86,3.742-1.329,6.869a.972.972,0,0,0-.026.163A29.058,29.058,0,0,0,140.319,304.675Z" transform="translate(-140.247 -290.498)" fill="#ffbe9d"/>
          </g>
          <path id="Path_138576" data-name="Path 138576" d="M168.982,336.165h15.686l-5.53,3.524Z" transform="translate(-143.808 -219.584)" fill="#218aff"/>
          <path id="Path_138577" data-name="Path 138577" d="M168.366,338.173l11.127,2.428.439-2.012-11.127-2.427a1.029,1.029,0,0,0-1.226.787h0A1.029,1.029,0,0,0,168.366,338.173Z" transform="translate(-143.631 -219.581)" fill="#76beff"/>
          <path id="Path_138578" data-name="Path 138578" d="M181.287,335.384h52.7a1.4,1.4,0,0,0,1.354-1.029l10.786-38.829a1.349,1.349,0,0,0-1.3-1.709H193.866a2.644,2.644,0,0,0-2.548,1.935l-10.747,38.69A.743.743,0,0,0,181.287,335.384Z" transform="translate(-145.24 -214.337)" fill="#76beff"/>
          <path id="Path_138579" data-name="Path 138579" d="M183.464,335.384h52.7a1.4,1.4,0,0,0,1.354-1.029L248.3,295.526a1.349,1.349,0,0,0-1.3-1.709H196.043a2.644,2.644,0,0,0-2.548,1.935l-10.747,38.69A.743.743,0,0,0,183.464,335.384Z" transform="translate(-145.51 -214.337)" fill="#218aff"/>
        </g>
      </g>
      <g id="Group_311330" data-name="Group 311330" transform="translate(436.271 145.907)">
        <path id="Rectangle_163980" data-name="Rectangle 163980" d="M5.146,0H46.1a5.146,5.146,0,0,1,5.146,5.146V7.139a0,0,0,0,1,0,0H0a0,0,0,0,1,0,0V5.146A5.146,5.146,0,0,1,5.146,0Z" transform="translate(31.737 242.155)" fill="#3945ba"/>
        <rect id="Rectangle_163981" data-name="Rectangle 163981" width="6.613" height="192.167" transform="translate(54.053 57.127)" fill="#176a92"/>
        <g id="Group_311329" data-name="Group 311329">
          <path id="Path_138580" data-name="Path 138580" d="M587.919,281.07H493.352l-2.447-4.192,34.811-116.593,92.119-4.192,2.447,4.192Z" transform="translate(-490.905 -156.093)" fill="#0271a6"/>
          <path id="Path_138581" data-name="Path 138581" d="M585.472,276.878H490.9l32.364-120.785h94.567Z" transform="translate(-490.905 -156.093)" fill="#60a6df"/>
          <path id="Path_138582" data-name="Path 138582" d="M519.716,278.414H505.367l14.3-53.387h14.349Z" transform="translate(-492.697 -164.635)" fill="#b8c7ff"/>
          <path id="Path_138583" data-name="Path 138583" d="M542.024,275.751H527.675l19.35-72.215h14.349Z" transform="translate(-495.462 -161.972)" fill="#b8c7ff"/>
          <path id="Path_138584" data-name="Path 138584" d="M564.333,281.576H549.984l8.316-31.038h14.349Z" transform="translate(-498.226 -167.796)" fill="#b8c7ff"/>
          <path id="Path_138585" data-name="Path 138585" d="M586.642,273.008H572.293L596.84,181.4h14.349Z" transform="translate(-500.99 -159.229)" fill="#b8c7ff"/>
          <path id="Path_138586" data-name="Path 138586" d="M560.862,167.128H537.137l.509-1.9H561.37Z" transform="translate(-496.634 -157.225)" fill="#b8c7ff"/>
          <path id="Path_138587" data-name="Path 138587" d="M559.991,170.378H536.267l.509-1.9H560.5Z" transform="translate(-496.526 -157.628)" fill="#b8c7ff"/>
          <path id="Path_138588" data-name="Path 138588" d="M559.12,173.628H535.4l.509-1.9h23.724Z" transform="translate(-496.418 -158.031)" fill="#b8c7ff"/>
          <path id="Path_138589" data-name="Path 138589" d="M548.874,176.878H534.525l.509-1.9h14.349Z" transform="translate(-496.31 -158.433)" fill="#b8c7ff"/>
          <path id="Path_138590" data-name="Path 138590" d="M581.276,232.345H562.247l.408-1.522h19.029Z" transform="translate(-499.746 -165.353)" fill="#b8c7ff"/>
          <path id="Path_138591" data-name="Path 138591" d="M580.578,234.952H561.549l.408-1.523h19.029Z" transform="translate(-499.659 -165.676)" fill="#b8c7ff"/>
          <path id="Path_138592" data-name="Path 138592" d="M579.879,237.559H560.851l.408-1.522h19.029Z" transform="translate(-499.573 -165.999)" fill="#b8c7ff"/>
          <path id="Path_138593" data-name="Path 138593" d="M571.661,240.166H560.152l.408-1.522h11.509Z" transform="translate(-499.486 -166.322)" fill="#b8c7ff"/>
        </g>
      </g>
      <g id="Group_311335" data-name="Group 311335" transform="translate(384.882 195.455)">
        <g id="Group_311331" data-name="Group 311331" transform="translate(0 58.786)">
          <path id="Path_138594" data-name="Path 138594" d="M485.192,305.3,476,281.722a3.1,3.1,0,0,0-2.886-1.972H433.793a1.457,1.457,0,0,0-1.357,1.987l9.19,23.564Z" transform="translate(-432.334 -279.75)" fill="#60a6df"/>
          <path id="Path_138595" data-name="Path 138595" d="M484.242,304.288H444.223l-8.253-21.166a1.334,1.334,0,0,1,1.244-1.822h36.112a2.85,2.85,0,0,1,2.655,1.813Z" transform="translate(-432.773 -279.942)" fill="#3a83be"/>
          <path id="Path_138596" data-name="Path 138596" d="M456.992,290.851H441.83l-3.031-7.685h15.161Z" transform="translate(-433.136 -280.173)" fill="#4e95cf"/>
          <path id="Path_138597" data-name="Path 138597" d="M480.364,292.355H462.236l-3.624-9.188H476.74Z" transform="translate(-435.591 -280.173)" fill="#4e95cf"/>
          <path id="Path_138598" data-name="Path 138598" d="M482.183,296.953H464.057l-.736-1.866h18.126Z" transform="translate(-436.174 -281.65)" fill="#4e95cf"/>
          <path id="Path_138599" data-name="Path 138599" d="M483.537,300.613H465.411l-.736-1.866H482.8Z" transform="translate(-436.342 -282.104)" fill="#4e95cf"/>
          <path id="Path_138600" data-name="Path 138600" d="M460.907,301.085H445.746l-3.031-7.685h15.161Z" transform="translate(-433.621 -281.442)" fill="#4e95cf"/>
        </g>
        <g id="Group_311333" data-name="Group 311333" transform="translate(78.174)">
          <path id="Path_138601" data-name="Path 138601" d="M549.544,251.65a1.873,1.873,0,0,1-1.551-1.568c-1.419-5.528.35-14.289.35-14.289l-6.667,5.248s-5.067,3.581-5.164,3.941l-.242,5.9-.009-.009C535.779,260.863,550.884,252.281,549.544,251.65Z" transform="translate(-523.386 -215.517)" fill="#ffbe9d"/>
          <path id="Path_138602" data-name="Path 138602" d="M527.336,224.259c-.062,3.2-.048,11.789,1.7,16.724a5.3,5.3,0,0,0,5.54,3.489A13.873,13.873,0,0,0,543.384,240c1.565-1.663,3.322-1.874,4.135-4.007,1.321-3.464,3.365-9.9,2.193-14.058-1.6-5.673-18.984-12.1-22.028-.532A12.106,12.106,0,0,0,527.336,224.259Z" transform="translate(-522.279 -212.935)" fill="#ffbe9d"/>
          <path id="Path_138603" data-name="Path 138603" d="M544.307,213.848c-5.713-3.09-15.295.368-22.741,3.872a7.185,7.185,0,0,0,8.485,6.267c.5,2.33.037,5.437,1.736,7.264.968,1.041,2.832,1.283,4.768,1.187.182.471,1.115,6.692,2.039,9.329h7.958c.124-.418,5.342-9.468,6.147-16.089C553.433,219.637,551.8,213.848,544.307,213.848Z" transform="translate(-521.566 -212.649)" fill="#192c51"/>
          <g id="Group_311332" data-name="Group 311332" transform="translate(11.255 15.678)">
            <path id="Path_138604" data-name="Path 138604" d="M535.386,238.448c2.86,1.822,4.649-7.033,1.844-7.835-2.126-.607-2.563,3.05-2.563,3.05S533.753,237.407,535.386,238.448Z" transform="translate(-534.413 -230.545)" fill="#ffbe9d"/>
            <path id="Path_138605" data-name="Path 138605" d="M537.126,233.887a1.5,1.5,0,0,0-.735.2,1.716,1.716,0,0,0-.15.113,4.307,4.307,0,0,1,.462-1.431,2.5,2.5,0,0,1,.449-.616,1.576,1.576,0,0,0-.71.409,2.826,2.826,0,0,0-.791,1.63,3.969,3.969,0,0,0-.032.717l-.011.019.011,0a4.315,4.315,0,0,0,.159,1.032,4.752,4.752,0,0,0,.2.546c.055.129.095.2.095.2s.011-.082.017-.222.01-.332.017-.567.009-.5.031-.778l.007,0a2.333,2.333,0,0,1,.087-.279,1.541,1.541,0,0,1,.333-.548,1.326,1.326,0,0,1,.571-.343,1.113,1.113,0,0,1,.318-.05A1.141,1.141,0,0,0,537.126,233.887Z" transform="translate(-534.561 -230.745)" fill="#efa681"/>
          </g>
        </g>
        <path id="Path_138606" data-name="Path 138606" d="M464.669,300.32a31.5,31.5,0,0,1-3.285-.329c-1.533-.256-2.92-1.1-5.475-1.241s-9.746,5.8-10.257,6.607.548,1.2,1.314,1.058,3.979-1.424,3.979-1.424-.4.365,2.957,1.2,5.585-.657,6.643-.62,3.468.364,3.468.364Z" transform="translate(-433.968 -223.319)" fill="#ffbe9d"/>
        <path id="Path_138607" data-name="Path 138607" d="M494.406,439.224h23.6s1.319-4.2-1.539-9.409c0,0-1.9,1.523-7.589.493a25.337,25.337,0,0,1-4.014,2.8C503.215,433.91,493.77,435.764,494.406,439.224Z" transform="translate(-440.022 -239.56)" fill="#18004d"/>
        <path id="Path_138608" data-name="Path 138608" d="M445.68,439.224h23.6s1.319-4.2-1.539-9.409c0,0-1.9,1.523-7.59.493a25.315,25.315,0,0,1-4.015,2.8C454.489,433.91,445.044,435.764,445.68,439.224Z" transform="translate(-433.984 -239.56)" fill="#18004d"/>
        <path id="Path_138609" data-name="Path 138609" d="M557.5,330.5c-.329-3.234-1.495-4.406-1.495-4.406l-17.084,5.582-15.529,3.538c-5.757,1.283-12.712,2.827-18.843,4.213-6.881,1.563-11.448,6.789-9.941,13.678l1.724,8.357h0c1.972,10.7,8.427,39.193,11.291,56.407a27.73,27.73,0,0,0,9.587-.488c-.276-6.338-.065-21.152,0-27.8.082-8.854.3-21.687-1.829-30.057,14.33-.551,30.753-1.769,38.219-5.8C562.438,348.943,557.5,330.5,557.5,330.5Z" transform="translate(-440.016 -226.707)" fill="#2d3a70"/>
        <path id="Path_138610" data-name="Path 138610" d="M538.163,333.058a20.883,20.883,0,0,0-.958-4.874s-18.2,1.241-26.815,2.968c-12.986,2.6-30.588,6.311-37.206,8.535-5.469,1.837-9.645,5.213-10.162,10.149L463,349.83c-.054.519-1.387,49.82-1.576,67.767a27.073,27.073,0,0,0,9.322.833c1.255-7.307,5.037-23.245,6.657-30.818,1.92-8.971,4.353-19.67,4.821-27.057,16.735-1.457,46.061-4.782,49.028-4.936C541.764,355.072,538.163,333.058,538.163,333.058Z" transform="translate(-435.939 -226.966)" fill="#24315d"/>
        <path id="Path_138611" data-name="Path 138611" d="M558.873,296.8c-.368,6.054-3.329,10.592-.517,19.817a14.681,14.681,0,0,1,.832,4.258c0,.64-.806,1.3-1.139,1.481-3.477,2.006-17.013,2.3-23.821,2.3-5.318,0-12.975-.745-15.523-1.962a2.037,2.037,0,0,1-.746-.526c-1.051-1.4-.088-3.425.412-6.229,2.225-12.642,1.437-19.23,1.3-28.359,0-.228-.009-.456-.009-.692v-.175h-.009c-.718-.105-1.4-.237-2-.359-.981-.219-1.734-.438-2.059-.543-7.341-2.3-8.436-4.661-8.436-4.661,2.076-9.032,4.581-15.095,6.815-19.1.053-.1.105-.193.167-.3s.114-.2.175-.3a17.446,17.446,0,0,1,4.845-5.037c.193-.14.377-.272.578-.412,0,0,.035-.026.115-.079.114-.07.228-.149.341-.219.053-.026.106-.061.167-.1,1.5-.876,5.73-2.926,13.273-3.653a73.77,73.77,0,0,1,18.976.946s.035.009.061.018h.009a18.943,18.943,0,0,1,7.175,5.037,23.551,23.551,0,0,1,3.365,4.512c1,3.121,1.308,9.527-2.156,24.653C560.766,288.432,558.953,295.54,558.873,296.8Z" transform="translate(-441.607 -217.489)" fill="#fec35b"/>
        <path id="Path_138612" data-name="Path 138612" d="M523.048,305.757c-.508,5.963-3.574,20.868-2.881,21.893a2.037,2.037,0,0,1-.746-.526c-1.051-1.4-.088-3.425.412-6.229,2.225-12.642,1.437-19.23,1.3-28.359,0-.228-.009-.456-.009-.692v-.175c.114.018,1.227.149,3.022.359C524.143,292.029,523.45,301.048,523.048,305.757Z" transform="translate(-443.068 -222.442)" fill="#e3e6ed"/>
        <path id="Path_138613" data-name="Path 138613" d="M502.834,281.3s-4.2,14.878-4.838,16.49c-5.695-.109-31.648,0-31.648,0l-1.1,6.571s35.024,6.967,40.921,6.972c4.307,0,11.315-20.591,11.315-20.591l-8.1-5.922Z" transform="translate(-436.414 -221.157)" fill="#fec35b"/>
        <g id="Group_311334" data-name="Group 311334" transform="translate(41.697 38.982)">
          <path id="Path_138614" data-name="Path 138614" d="M543.187,430.5h-4.009l-8.344-70.415h7.7Z" transform="translate(-486.238 -269.901)" fill="#60a6df"/>
          <path id="Path_138615" data-name="Path 138615" d="M479.93,430.5h4.009l8.344-70.415h-7.7Z" transform="translate(-479.93 -269.901)" fill="#60a6df"/>
          <path id="Path_138616" data-name="Path 138616" d="M574.286,257.145H533.57a7.261,7.261,0,0,0-7.261,7.261v85.08h43.1l12.97-82.879A8.2,8.2,0,0,0,574.286,257.145Z" transform="translate(-485.677 -257.145)" fill="#60a6df"/>
          <path id="Path_138617" data-name="Path 138617" d="M578.911,430.5H574.9l-8.344-70.415h7.7Z" transform="translate(-490.664 -269.901)" fill="#60a6df"/>
          <path id="Path_138618" data-name="Path 138618" d="M515.654,430.5h4.009l8.344-70.415h-7.7Z" transform="translate(-484.357 -269.901)" fill="#60a6df"/>
          <path id="Path_138619" data-name="Path 138619" d="M560.07,365.8H486.356a3.789,3.789,0,0,1-3.789-3.789h0a3.789,3.789,0,0,1,3.789-3.789H560.07a3.789,3.789,0,0,1,3.789,3.789h0A3.789,3.789,0,0,1,560.07,365.8Z" transform="translate(-480.257 -269.67)" fill="#60a6df"/>
        </g>
      </g>
      <g id="Group_311339" data-name="Group 311339" transform="translate(64.934 317.754)">
        <g id="Group_311336" data-name="Group 311336" transform="translate(0 3.806)">
          <path id="Path_138620" data-name="Path 138620" d="M69.494,356.75s-2.792.88-1.853,5.662,2.478,5.361,1.813,9.643S73.709,379.6,74.5,382.25s-1.013,7.349,1.129,10.9c1.165,1.93,4.107,3.436,7.967,3.818,8.768.869,15.851-3.6,17.728-11.44a12.132,12.132,0,0,0,.331-3.724c-.561-7.555-9.151-7.7-11.542-9.374s-3.036-7.89-5.1-9.3-4.366.675-7.866-2.437S71.715,356.076,69.494,356.75Z" transform="translate(-67.448 -356.591)" fill="#4e95cf"/>
          <path id="Path_138621" data-name="Path 138621" d="M70.184,359.247s26.07,30.679,29.506,54.644" transform="translate(-67.787 -356.92)" fill="none" stroke="#176a92" stroke-linecap="round" stroke-miterlimit="10" stroke-width="1.083"/>
          <path id="Path_138622" data-name="Path 138622" d="M71.1,368.043a23.086,23.086,0,0,1,8.318,4.231" transform="translate(-67.9 -358.01)" fill="none" stroke="#176a92" stroke-linecap="round" stroke-miterlimit="10" stroke-width="0.722"/>
          <path id="Path_138623" data-name="Path 138623" d="M85.3,365.46s-2.185,6.374-1.38,10.767" transform="translate(-69.467 -357.69)" fill="none" stroke="#176a92" stroke-linecap="round" stroke-miterlimit="10" stroke-width="0.722"/>
          <path id="Path_138624" data-name="Path 138624" d="M75.989,382.868s8.969,1.089,11.924,3.311" transform="translate(-68.506 -359.847)" fill="none" stroke="#176a92" stroke-linecap="round" stroke-miterlimit="10" stroke-width="0.722"/>
          <path id="Path_138625" data-name="Path 138625" d="M97.092,380.626s-3.8,7.651-3.733,11.049" transform="translate(-70.658 -359.569)" fill="none" stroke="#176a92" stroke-linecap="round" stroke-miterlimit="10" stroke-width="0.722"/>
          <path id="Path_138626" data-name="Path 138626" d="M80.539,397.185s7.3-1.463,12.815-.54" transform="translate(-69.07 -361.516)" fill="none" stroke="#176a92" stroke-linecap="round" stroke-miterlimit="10" stroke-width="0.722"/>
          <path id="Path_138627" data-name="Path 138627" d="M86.343,374.345a28.1,28.1,0,0,0-.725,5.2" transform="translate(-69.699 -358.791)" fill="none" stroke="#176a92" stroke-linecap="round" stroke-miterlimit="10" stroke-width="0.722"/>
        </g>
        <g id="Group_311337" data-name="Group 311337" transform="translate(23.504)">
          <path id="Path_138628" data-name="Path 138628" d="M120.7,352.262s2.913.29,2.974,5.162-1.326,5.755.2,9.81-2.619,8.254-2.851,11.013,2.5,6.985,1.129,10.9c-.745,2.128-3.315,4.205-7.015,5.371-8.4,2.648-16.251-.272-19.7-7.562a12.121,12.121,0,0,1-1.088-3.576c-1-7.51,7.377-9.413,9.374-11.542s1.353-8.346,3.087-10.151,4.411-.236,7.2-4S118.388,352.059,120.7,352.262Z" transform="translate(-94.276 -352.247)" fill="#60a6df"/>
          <path id="Path_138629" data-name="Path 138629" d="M122.04,354.77s-19.224,35.373-17.674,59.532" transform="translate(-95.515 -352.56)" fill="none" stroke="#176a92" stroke-linecap="round" stroke-miterlimit="10" stroke-width="1.083"/>
          <path id="Path_138630" data-name="Path 138630" d="M124.436,363.566a23.074,23.074,0,0,0-7.274,5.847" transform="translate(-97.112 -353.65)" fill="none" stroke="#176a92" stroke-linecap="round" stroke-miterlimit="10" stroke-width="0.722"/>
          <path id="Path_138631" data-name="Path 138631" d="M110.813,364s3.446,5.792,3.558,10.255" transform="translate(-96.325 -353.703)" fill="none" stroke="#176a92" stroke-linecap="round" stroke-miterlimit="10" stroke-width="0.722"/>
          <path id="Path_138632" data-name="Path 138632" d="M122.161,379.079s-8.556,2.905-10.992,5.685" transform="translate(-96.369 -355.572)" fill="none" stroke="#176a92" stroke-linecap="round" stroke-miterlimit="10" stroke-width="0.722"/>
          <path id="Path_138633" data-name="Path 138633" d="M102.084,381.32s5.285,6.71,5.92,10.049" transform="translate(-95.243 -355.85)" fill="none" stroke="#176a92" stroke-linecap="round" stroke-miterlimit="10" stroke-width="0.722"/>
          <path id="Path_138634" data-name="Path 138634" d="M120.432,394.142s-7.439.064-12.652,2.1" transform="translate(-95.949 -357.438)" fill="none" stroke="#176a92" stroke-linecap="round" stroke-miterlimit="10" stroke-width="0.722"/>
          <path id="Path_138635" data-name="Path 138635" d="M111.733,372.881a28.132,28.132,0,0,1,1.775,4.939" transform="translate(-96.439 -354.804)" fill="none" stroke="#176a92" stroke-linecap="round" stroke-miterlimit="10" stroke-width="0.722"/>
        </g>
        <g id="Group_311338" data-name="Group 311338" transform="translate(15.202 45.263)">
          <path id="Path_138636" data-name="Path 138636" d="M111.388,436.509H91.153l-4.22-29.267h28.674Z" transform="translate(-85.064 -404.325)" fill="#284f63"/>
          <path id="Path_138637" data-name="Path 138637" d="M86.933,407.242l.465,3.226,27.335,2.836.874-6.062Z" transform="translate(-85.064 -404.325)" fill="#40718a"/>
          <rect id="Rectangle_163982" data-name="Rectangle 163982" width="32.413" height="4.499" fill="#284f63"/>
        </g>
      </g>
      <g id="Group_311340" data-name="Group 311340" transform="translate(325.579 124.908)">
        <path id="Path_138638" data-name="Path 138638" d="M412.886,132.124h-43.82a4.323,4.323,0,0,0-4.323,4.323V148a4.323,4.323,0,0,0,4.323,4.323h34l6.277,6.277v-6.277h3.546A4.323,4.323,0,0,0,417.21,148V136.447A4.323,4.323,0,0,0,412.886,132.124Z" transform="translate(-364.743 -132.124)" fill="none" stroke="#60a6df" stroke-linecap="round" stroke-linejoin="round" stroke-width="1.319"/>
        <line id="Line_801" data-name="Line 801" x2="33.589" transform="translate(6.547 5.509)" fill="none" stroke="#60a6df" stroke-linecap="round" stroke-miterlimit="10" stroke-width="1.319"/>
        <line id="Line_802" data-name="Line 802" x2="38.796" transform="translate(6.547 10.101)" fill="none" stroke="#60a6df" stroke-linecap="round" stroke-miterlimit="10" stroke-width="1.319"/>
        <line id="Line_803" data-name="Line 803" x2="13.909" transform="translate(6.547 14.694)" fill="none" stroke="#60a6df" stroke-linecap="round" stroke-miterlimit="10" stroke-width="1.319"/>
      </g>
      <g id="Group_311341" data-name="Group 311341" transform="translate(463.356 118.065)">
        <path id="Path_138639" data-name="Path 138639" d="M632.248,238.17v19.947h16.243V238.17h7.67L640.37,216.827,624.578,238.17Z" transform="translate(-534.554 -135.777)" fill="#4e95cf" opacity="0.3"/>
        <path id="Path_138640" data-name="Path 138640" d="M525.656,134.984v9.973h8.121v-9.973h3.835l-7.9-10.671-7.9,10.671Z" transform="translate(-521.821 -124.313)" fill="#4e95cf" opacity="0.3"/>
      </g>
      <line id="Line_804" data-name="Line 804" x2="570" transform="translate(47.16 394.951)" fill="none" stroke="#fff" stroke-linecap="round" stroke-miterlimit="10" stroke-width="1.114"/>
    </g>
    <rect id="Rectangle_163984" data-name="Rectangle 163984" width="568.362" height="0.892" transform="translate(811 452)" fill="#1b1b43"/>
  </g>
</svg>
